# xmcd
# 
# Track frame offsets:
#     150
#     15153
#     29418
#     44756
#     62541
#     80121
#     93905
#     110770
#     125458
#     139547
#     155956
#     169671
#     185857
#     202244
#     218830
#     233571
#     249665
#     265938
#     282059
# 
# Disc length: 4021
# 
# Revision: 1
# Processed by: cddbd v1.5.2PL0 Copyright (c) Steve Scherf et al.
# Submitted via: fre:ac v1.0.31
# 
DISCID=180fb313
DTITLE=Bronco - Primera Fila
DYEAR=2017
DGENRE=Grupero
TTITLE0=Oro (En Vivo)
TTITLE1=Nunca Voy a Olvidarte Ft. Cristian Castro (En Vivo)
TTITLE2=Si te Vuelves a Enamorar (En Vivo)
TTITLE3=El Sheriff De Chocolate-Los Castigados Ft. LemonGrass (En Vivo)
TTITLE4=Gajes Del Oficio (En Vivo)
TTITLE5=Con Zapatos De Tacón (En Vivo)
TTITLE6=Sergio El Bailador-Coolo Ft. Illya Kuryaki and The Valderramas (En Vivo)
TTITLE7=Que Te Han Visto Llorar (En Vivo)
TTITLE8=Pastillas De Amnesia (En Vivo)
TTITLE9=Déjame Amarte Otra Vez (En Vivo)
TTITLE10=Que No Quede Huella Ft. León Larregui (En Vivo)
TTITLE11=Impotente (En Vivo)
TTITLE12=Libros Tontos (En Vivo)
TTITLE13=Adoro Ft. Julieta Venegas (En Vivo)
TTITLE14=Quiéreme Como Te Quiero (En Vivo)
TTITLE15=Doctor (En Vivo)
TTITLE16=Dos Mujeres Un Camino (En Vivo)
TTITLE17=Carazón Duro (En Vivo)
TTITLE18=Amigo Bronco (En Vivo)
EXTD=
EXTT0=
EXTT1=
EXTT2=
EXTT3=
EXTT4=
EXTT5=
EXTT6=
EXTT7=
EXTT8=
EXTT9=
EXTT10=
EXTT11=
EXTT12=
EXTT13=
EXTT14=
EXTT15=
EXTT16=
EXTT17=
EXTT18=
PLAYORDER=
